<svg width="150" height="40" viewBox="0 0 150 40" fill="none" xmlns="http://www.w3.org/2000/svg">
<path d="M41.5562 26.046C41.5562 27.5023 41.8858 28.6361 42.5451 29.4511C43.2044 30.23 44.1462 30.6176 45.3597 30.6176C46.2979 30.6176 47.0985 30.3785 47.7578 29.9076C48.4569 29.433 48.9749 28.7701 49.3226 27.9261C49.7066 27.0784 49.9276 26.0967 49.9276 24.981H49.9239L49.895 12.5885H60.1427V39H54.4918C53.9991 39 53.5101 38.9203 53.0428 38.7645C52.1553 38.4675 51.3693 37.8951 50.8151 37.1417C50.8006 37.1236 50.7861 37.1054 50.7716 37.0837C50.4238 36.5947 50.1992 36.0259 50.0688 35.4427C50.0181 35.2218 49.971 35.0044 49.9638 34.7798C49.9602 34.6639 49.9819 34.4973 49.8696 34.4284C49.5726 34.2437 49.3045 34.5842 49.1379 34.787C49.0365 34.9102 48.9314 35.0334 48.8227 35.1565C48.609 35.3992 48.388 35.6347 48.1598 35.8593C47.3484 36.6563 46.4247 37.359 45.4104 37.8807C43.9506 38.6269 42.2988 39 40.4586 39C37.6114 38.9964 35.3909 38.1125 33.7934 36.352C32.1923 34.5588 31.3954 32.0195 31.3954 28.7339V12.5849H41.5562V26.046ZM73.3464 39H68.0939C65.3843 39 63.1855 36.8011 63.1855 34.0915V2H73.3464V39ZM86.8652 39H81.6127C78.9032 39 76.7043 36.8011 76.7043 34.0915V2H86.8652V39ZM103.793 11.212C106.64 11.212 109.089 11.806 111.139 12.9942C113.225 14.1462 114.787 15.7219 115.83 17.7107C116.906 19.6668 117.445 21.8331 117.445 24.2094C117.445 25.4664 117.391 26.5133 117.29 27.3537H99.3117C99.5073 28.694 99.8877 29.7917 100.46 30.5524C101.326 31.6717 102.543 32.2332 104.108 32.2332C105.082 32.2332 105.897 31.9905 106.56 31.5015C107.256 31.0161 107.81 30.2771 108.23 29.299L117.196 31.0813C116.152 33.7039 114.551 35.6782 112.399 37.004C110.28 38.3334 107.451 38.9964 103.909 39H103.898C100.84 39 98.2323 38.4059 96.0806 37.2178C93.9289 35.9934 92.3133 34.3342 91.2374 32.2368C90.1616 30.1394 89.6218 27.7667 89.6218 25.1078L89.6182 25.1005C89.6182 22.4453 90.1543 20.0689 91.2338 17.9715C92.3132 15.8741 93.9107 14.2331 96.0298 13.0449C98.1489 11.8205 100.735 11.212 103.793 11.212ZM6.50945 3.19543C8.67565 3.5939 10.2514 5.48122 10.2514 7.6873V15.7328C10.2514 15.9176 10.3999 16.0661 10.5847 16.0661C10.7006 16.0661 10.8056 16.0045 10.8672 15.9067C11.7547 14.4577 12.8487 13.3492 14.1564 12.574C15.5111 11.7771 17.0579 11.3786 18.793 11.3786C20.9121 11.3786 22.7378 11.9147 24.2628 12.9942C25.7879 14.0737 26.9543 15.6531 27.7548 17.736C28.588 19.7864 29.0046 22.275 29.0046 25.1875C29.0046 28.1 28.588 30.6067 27.7548 32.6896C26.9579 34.74 25.7951 36.3013 24.2628 37.3807C22.7378 38.4602 20.9121 38.9964 18.793 38.9964C17.0543 38.9964 15.464 38.5689 14.1564 37.801C12.8487 37.033 11.7547 35.9209 10.8672 34.4719C10.8056 34.3705 10.697 34.3089 10.5774 34.3089C10.3927 34.3089 10.2478 34.4538 10.2369 34.6385C10.0811 37.2503 8.09969 38.9964 5.67993 38.9964H0V2L6.50945 3.19543ZM130.367 2V12.5849H136.673V13.4108C136.673 16.8956 133.848 19.7175 130.367 19.7176V26.5532C130.367 27.7196 131.428 28.5999 132.573 28.3825L136.528 27.6761C136.01 28.7701 135.739 29.9837 135.739 31.3203C135.739 33.7872 136.601 35.8738 138.303 37.5148L138.347 37.5583L138.35 37.5546C138.394 37.5945 138.445 37.6307 138.492 37.6705C136.354 38.0799 130.743 39.1775 128.965 38.9674C127.172 38.7537 125.444 38.0473 124.031 36.9207C121.633 35.008 120.206 32.0521 120.206 28.9802V7.70179C120.206 5.50657 121.767 3.62287 123.922 3.21353L130.338 2H130.367ZM144.585 26.18C146.07 26.18 147.345 26.6655 148.374 27.6254L148.377 27.6218C149.449 28.5926 150 29.8496 150 31.3457C150 32.8418 149.439 34.1568 148.374 35.1493C147.348 36.1093 146.066 36.5947 144.585 36.5947C143.103 36.5947 141.821 36.1129 140.767 35.1638L140.738 35.1384C139.698 34.135 139.169 32.8418 139.169 31.3493C139.169 29.8569 139.702 28.6071 140.752 27.6254C141.821 26.6618 143.099 26.18 144.585 26.18ZM14.5693 19.4567C13.2508 19.4567 12.1858 19.9784 11.3888 21.0217C10.6245 22.0287 10.2405 23.4233 10.2405 25.1911C10.2405 26.9589 10.6245 28.368 11.3888 29.4113C12.1894 30.4183 13.2508 30.9219 14.5693 30.9219C15.8879 30.9219 16.9311 30.4183 17.6954 29.4113C18.4598 28.3716 18.8437 26.9625 18.8437 25.1911C18.8437 23.4197 18.4598 22.0287 17.6954 21.0217C16.9311 19.9784 15.8879 19.4567 14.5693 19.4567ZM103.8 17.9788C102.34 17.9788 101.192 18.5728 100.359 19.761C99.913 20.4276 99.5943 21.2897 99.3987 22.3294H108.078C107.897 21.1593 107.549 20.2319 107.031 19.5509C106.234 18.504 105.155 17.9788 103.8 17.9788Z" fill="white"/>
</svg>
